<svg xmlns="http://www.w3.org/2000/svg" width="64" height="64" viewBox="0 0 64 64">
    <g fill="none" fill-rule="evenodd">
        <path fill="#FFF" d="M7.976 0h48.048C60.422 0 64 3.571 64 7.976v48.048C64 60.422 60.429 64 56.024 64H7.976C3.578 64 0 60.429 0 56.024V7.976C0 3.578 3.571 0 7.976 0z"/>
        <path fill="#4285F4" d="M50.432 32.436c0-1.361-.122-2.67-.35-3.927H32v7.427h10.333c-.445 2.4-1.798 4.433-3.831 5.795v4.817h6.205c3.63-3.342 5.725-8.264 5.725-14.112z"/>
        <path fill="#34A853" d="M32 51.2c5.184 0 9.53-1.72 12.707-4.652l-6.205-4.817c-1.72 1.152-3.919 1.833-6.502 1.833-5 0-9.233-3.378-10.743-7.916h-6.415v4.975C18.002 46.897 24.495 51.2 32 51.2z"/>
        <path fill="#FBBC05" d="M21.257 35.648A11.541 11.541 0 0 1 20.655 32c0-1.265.218-2.496.602-3.648v-4.975h-6.415A19.192 19.192 0 0 0 12.8 32c0 3.098.742 6.03 2.042 8.623l6.415-4.975z"/>
        <path fill="#EA4335" d="M32 20.436c2.819 0 5.35.97 7.34 2.872l5.507-5.507C41.52 14.703 37.175 12.8 32 12.8c-7.505 0-13.999 4.303-17.158 10.577l6.415 4.975c1.51-4.538 5.742-7.916 10.743-7.916z"/>
    </g>
</svg>
